<?xml version="1.0" encoding="UTF-8"?>
<svg xmlns="http://www.w3.org/2000/svg" xmlns:xlink="http://www.w3.org/1999/xlink" width="585.29pt" height="141.73pt" viewBox="0 0 585.29 141.73" version="1.1">
<defs>
<clipPath id="clip1">
  <path d="M 0 0 L 142 0 L 142 141.730469 L 0 141.730469 Z M 0 0 "/>
</clipPath>
<clipPath id="clip2">
  <path d="M 447 0 L 520 0 L 520 141.730469 L 447 141.730469 Z M 447 0 "/>
</clipPath>
<clipPath id="clip3">
  <path d="M 538 95 L 585.289063 95 L 585.289063 115 L 538 115 Z M 538 95 "/>
</clipPath>
</defs>
<g id="surface1">
<g clip-path="url(#clip1)" clip-rule="nonzero">
<path style=" stroke:none;fill-rule:nonzero;fill:rgb(95.292664%,56.861877%,0%);fill-opacity:1;" d="M 0 141.730469 L 141.730469 141.730469 L 141.730469 -0.00390625 L 0 -0.00390625 Z M 0 141.730469 "/>
</g>
<path style=" stroke:none;fill-rule:nonzero;fill:rgb(100%,100%,100%);fill-opacity:1;" d="M 56.273438 70.683594 C 56.273438 77.988281 54.671875 83.601563 46.472656 83.601563 C 37.296875 83.601563 36.316406 77.007813 36.316406 71.664063 L 36.316406 29.773438 L 24.550781 32.367188 L 24.550781 73.355469 C 24.550781 88.949219 35.421875 94.917969 45.9375 94.917969 C 59.660156 94.917969 68.035156 86.097656 68.035156 75.046875 L 68.035156 29.773438 L 56.273438 32.367188 "/>
<path style=" stroke:none;fill-rule:nonzero;fill:rgb(100%,100%,100%);fill-opacity:1;" d="M 96.976563 84.582031 C 89.402344 84.582031 83.878906 78.257813 83.878906 70.863281 C 83.878906 63.464844 89.402344 57.136719 96.976563 57.136719 C 104.550781 57.136719 110.074219 63.464844 110.074219 70.863281 C 110.074219 78.257813 104.550781 84.582031 96.976563 84.582031 M 97.699219 46.847656 C 92.960938 46.847656 88.644531 48.28125 84.980469 50.828125 L 84.980469 44.167969 L 73.632813 46.910156 L 73.632813 109.53125 L 84.949219 106.9375 L 84.949219 90.910156 C 88.601563 93.4375 92.984375 94.910156 97.699219 94.910156 C 110.453125 94.910156 120.789063 84.152344 120.789063 70.878906 C 120.789063 57.605469 110.453125 46.847656 97.699219 46.847656 "/>
<path style=" stroke:none;fill-rule:nonzero;fill:rgb(30.599976%,36.099243%,35.299683%);fill-opacity:1;" d="M 550.734375 34.480469 L 551.996094 34.480469 C 552.402344 34.480469 553.152344 34.480469 553.152344 35.554688 C 553.152344 35.960938 552.964844 36.671875 551.960938 36.671875 L 550.734375 36.671875 Z M 550.773438 37.929688 L 552.148438 37.929688 C 552.707031 37.929688 552.851563 38.152344 552.964844 38.601563 C 552.964844 38.714844 553.226563 40.71875 553.265625 41.09375 L 554.933594 41.09375 C 554.710938 40.71875 554.597656 39.640625 554.523438 39.011719 C 554.378906 38.007813 554.300781 37.300781 553.226563 37.230469 C 553.777344 37.039063 554.710938 36.742188 554.710938 35.296875 C 554.710938 33.210938 552.890625 33.210938 551.960938 33.210938 L 549.246094 33.210938 L 549.246094 41.09375 L 550.773438 41.09375 "/>
<path style=" stroke:none;fill-rule:nonzero;fill:rgb(30.599976%,36.099243%,35.299683%);fill-opacity:1;" d="M 551.867188 31.257813 C 555.101563 31.257813 557.777344 33.863281 557.777344 37.132813 C 557.777344 40.347656 555.136719 43.042969 551.867188 43.042969 C 548.628906 43.042969 545.992188 40.402344 545.992188 37.132813 C 545.992188 33.824219 548.671875 31.257813 551.867188 31.257813 M 551.886719 44.175781 C 555.757813 44.175781 558.90625 41.019531 558.90625 37.152344 C 558.90625 33.175781 555.675781 30.128906 551.886719 30.128906 C 548.128906 30.128906 544.859375 33.175781 544.859375 37.152344 C 544.859375 41.054688 548.058594 44.175781 551.886719 44.175781 "/>
<path style=" stroke:none;fill-rule:nonzero;fill:rgb(30.599976%,36.099243%,35.299683%);fill-opacity:1;" d="M 344.988281 7.445313 C 344.988281 7.445313 329.800781 26.21875 329.160156 32.921875 C 329.160156 32.921875 334.347656 34.289063 350.128906 14.4375 C 350.566406 13.9375 350.941406 13.457031 351.269531 12.996094 C 351.277344 12.984375 351.285156 12.972656 351.296875 12.960938 L 351.292969 12.960938 C 353.515625 9.769531 352.785156 7.550781 344.988281 7.445313 "/>
<path style=" stroke:none;fill-rule:nonzero;fill:rgb(30.599976%,36.099243%,35.299683%);fill-opacity:1;" d="M 464.429688 69.5625 C 452.652344 59.277344 429.761719 90.558594 420.316406 102.855469 C 408.335938 115.589844 420.113281 87.445313 422.03125 83.1875 C 443.648438 42.308594 465.28125 50.125 465.28125 50.125 C 467.835938 43.410156 444.941406 44.085938 442.160156 44.304688 C 420.546875 52.363281 407.042969 91.226563 402.984375 103.53125 C 399.34375 117.378906 413.683594 114.910156 416.269531 113.140625 C 438.078125 81.609375 441.324219 81.1875 443.878906 80.273438 C 450.074219 80.726563 443.878906 103.53125 444.285156 105.75 C 454.570313 102.40625 464.429688 71.34375 464.429688 69.5625 "/>
<path style=" stroke:none;fill-rule:nonzero;fill:rgb(30.599976%,36.099243%,35.299683%);fill-opacity:1;" d="M 558.371094 90.101563 C 553.992188 92.195313 526.855469 106.265625 521.878906 109.644531 L 521.871094 109.644531 C 521.871094 109.644531 520.503906 110.402344 519.917969 111.109375 C 519.8125 111.214844 519.742188 111.324219 519.714844 111.429688 C 519.558594 111.808594 519.75 112.125 520.707031 112.242188 C 520.714844 112.246094 520.726563 112.242188 520.734375 112.246094 C 521.019531 112.324219 521.34375 112.394531 521.769531 112.460938 C 521.769531 112.460938 559.019531 93.023438 563.734375 91.898438 C 565.433594 91.679688 564.5625 88.101563 558.371094 90.101563 "/>
<path style=" stroke:none;fill-rule:nonzero;fill:rgb(30.599976%,36.099243%,35.299683%);fill-opacity:1;" d="M 436.207031 37.605469 C 452.035156 28.878906 469.125 20.621094 469.125 20.621094 C 469.125 20.621094 455.394531 9.824219 442.160156 20.621094 C 429.101563 31.175781 409.429688 47.785156 372.324219 108.078125 C 372.320313 108.082031 372.320313 108.082031 372.316406 108.085938 C 370.839844 110.464844 369.527344 111.210938 368.480469 111.265625 C 365.765625 111.265625 364.726563 106.402344 364.59375 105.714844 C 364.199219 103.03125 364.757813 100.113281 365.546875 93.925781 C 368.183594 73.347656 379.046875 51.171875 370.15625 44.257813 L 370.15625 44.234375 C 370.15625 44.234375 366.851563 41.496094 359.726563 42.613281 C 359.726563 42.613281 360.386719 54.789063 360.472656 60.742188 C 360.058594 75.550781 359.054688 94.984375 358.707031 100.855469 C 358.671875 102.765625 357.675781 110.15625 360.578125 113.703125 L 360.578125 113.707031 C 360.578125 113.707031 360.628906 113.769531 360.726563 113.875 C 360.910156 114.082031 361.101563 114.277344 361.3125 114.453125 C 363.148438 116.109375 368.199219 119.464844 373.828125 112.773438 C 374.394531 112.136719 375.03125 111.359375 375.757813 110.414063 C 376.273438 109.753906 376.664063 109.234375 376.9375 108.835938 C 378.0625 107.285156 379.382813 105.390625 380.960938 103.070313 C 388.445313 92.347656 415.804688 48.761719 436.207031 37.605469 "/>
<g clip-path="url(#clip2)" clip-rule="nonzero">
<path style=" stroke:none;fill-rule:nonzero;fill:rgb(30.599976%,36.099243%,35.299683%);fill-opacity:1;" d="M 517.378906 7.3125 C 517.402344 7.277344 517.4375 7.25 517.464844 7.210938 C 518.171875 6.28125 518.566406 5.628906 518.785156 5.214844 C 518.785156 5.214844 518.789063 5.207031 518.789063 5.203125 L 518.789063 5.199219 C 518.972656 4.847656 519.03125 4.671875 519.03125 4.671875 C 519.132813 4.082031 521.082031 -0.257813 508.96875 0.269531 C 498.746094 0.722656 498.3125 8.527344 498.421875 10.960938 L 498.414063 10.949219 C 498.414063 10.949219 498.347656 15.523438 494.652344 23.671875 C 494.652344 23.671875 494.652344 23.671875 494.648438 23.671875 C 484.476563 46 449.128906 124.425781 447.570313 139.984375 L 447.566406 139.984375 C 447.566406 139.984375 447.507813 140.371094 447.523438 140.742188 C 447.523438 140.777344 447.519531 140.816406 447.519531 140.847656 L 447.527344 140.847656 C 447.546875 141.105469 447.613281 141.34375 447.769531 141.414063 C 447.980469 141.511719 448.417969 141.027344 448.796875 140.535156 C 448.945313 140.351563 449.117188 140.109375 449.320313 139.8125 C 449.402344 139.691406 449.457031 139.601563 449.460938 139.601563 C 450.714844 137.683594 453.039063 133.519531 457.566406 124.753906 C 466.570313 107.097656 514.921875 11.480469 514.921875 11.480469 C 514.921875 11.480469 515.914063 9.589844 517.378906 7.3125 "/>
</g>
<g clip-path="url(#clip3)" clip-rule="nonzero">
<path style=" stroke:none;fill-rule:nonzero;fill:rgb(30.599976%,36.099243%,35.299683%);fill-opacity:1;" d="M 585.136719 96.867188 C 584.320313 94.730469 580.820313 95.070313 580.820313 95.070313 L 580.800781 95.085938 C 572.15625 95.054688 551.089844 105.042969 542.5625 109.265625 C 542.5625 109.265625 542.089844 109.472656 541.496094 109.796875 C 539.929688 110.660156 537.457031 112.394531 540.113281 113.671875 C 540.808594 113.941406 541.667969 114.054688 542.488281 114.09375 C 543.824219 114.148438 545.066406 114.015625 545.320313 114.015625 C 545.96875 112.019531 566.496094 105.75 576.785156 102.855469 C 578.96875 102.195313 580.597656 101.570313 581.84375 100.980469 C 581.851563 100.972656 581.863281 100.972656 581.871094 100.972656 C 583.386719 100.320313 585.953125 99.003906 585.136719 96.867188 "/>
</g>
<path style=" stroke:none;fill-rule:nonzero;fill:rgb(30.599976%,36.099243%,35.299683%);fill-opacity:1;" d="M 278.859375 78.050781 C 253.832031 106.421875 224.707031 120.730469 213.582031 126.09375 C 209.167969 128.515625 206.527344 129.828125 204.898438 130.484375 C 204.785156 130.527344 204.679688 130.566406 204.542969 130.628906 C 204.445313 130.667969 204.363281 130.691406 204.277344 130.722656 C 204.164063 130.765625 204.058594 130.800781 203.953125 130.835938 C 201.429688 131.457031 202.761719 128.050781 202.910156 127.585938 C 213.964844 104.253906 277.371094 76.710938 277.371094 76.710938 C 278.445313 76.265625 279.292969 77.140625 278.859375 78.050781 M 313.109375 44.53125 C 310.757813 51.242188 304.972656 64.875 303.484375 65.101563 C 301.757813 65.3125 300.269531 64.421875 295.984375 61.074219 C 290.417969 56.601563 284.863281 47.226563 247.835938 53.261719 C 246.328125 53.398438 244.679688 49.925781 252.117188 44.980469 C 258.753906 40.558594 275.4375 27.105469 307.335938 20.621094 C 307.335938 20.621094 301.5625 1.648438 292.347656 5.871094 C 285.972656 9.789063 238.492188 42.53125 233.054688 52.363281 C 229.027344 58.566406 231.800781 67.167969 244.847656 62.09375 C 252.988281 58.808594 278.847656 52.867188 288.410156 63.527344 C 288.78125 63.964844 289.25 64.976563 288.15625 66.769531 C 287.195313 68.199219 285.449219 69.847656 282.488281 70.679688 C 275.796875 72.285156 215.328125 91.390625 190.453125 125.890625 C 189.777344 126.902344 188.246094 129.65625 189.46875 132.386719 C 191.140625 136.148438 195.226563 140.632813 205.324219 136.566406 C 217.417969 131.695313 242.476563 121.628906 296.621094 75.144531 C 298.226563 73.796875 300.703125 71.792969 298.109375 78.726563 C 296.832031 81.851563 283.789063 109.335938 290.847656 113.140625 C 297.542969 115.222656 304.324219 116.261719 305.621094 107.773438 C 306.894531 100.386719 312.882813 71.792969 330.015625 55.039063 C 330.859375 53.261719 318.238281 36.046875 313.109375 44.53125 "/>
<path style=" stroke:none;fill-rule:nonzero;fill:rgb(30.599976%,36.099243%,35.299683%);fill-opacity:1;" d="M 530.070313 51.402344 C 531.882813 50.523438 534.8125 49.660156 536.554688 52.082031 C 537.472656 53.710938 537.222656 56.109375 536.53125 58.261719 C 536.484375 58.375 534.574219 62.90625 527.601563 67.066406 C 519.324219 71.902344 506.984375 77.535156 505.082031 77.382813 C 509.828125 63.878906 524.3125 54.632813 530.070313 51.402344 M 503.367188 80.726563 C 503.367188 80.726563 526.386719 74.039063 537.761719 64.933594 C 545.949219 58.972656 544.710938 51.050781 544.703125 51.042969 C 544.585938 47.742188 542.929688 44.34375 536.550781 43.410156 C 533.339844 43.195313 512.136719 40.289063 498.027344 69.109375 C 493.339844 77.453125 478.894531 101.746094 481.542969 109.898438 C 481.542969 109.910156 481.542969 109.921875 481.542969 109.9375 C 482.785156 113.152344 485.242188 114.417969 485.242188 114.417969 C 496.398438 119.472656 517.089844 103.691406 524.511719 97.554688 C 524.511719 97.554688 533.152344 91.121094 533.691406 90.742188 C 536.925781 88.445313 539.144531 86.746094 539.316406 86.316406 C 539.542969 84.980469 537.191406 83.410156 525.632813 91.679688 C 519.003906 96.300781 510.050781 102.601563 504.691406 105.6875 C 503.894531 106.125 500.46875 107.859375 496.792969 107.902344 C 493.976563 107.773438 491.734375 106.128906 495.238281 98.386719 C 499.085938 88.335938 502.082031 80.726563 503.367188 80.726563 "/>
</g>
</svg>
